<?xml version="1.0" encoding="utf-8"?>
<!-- Generator: Adobe Illustrator 16.0.0, SVG Export Plug-In . SVG Version: 6.00 Build 0)  -->
<!DOCTYPE svg PUBLIC "-//W3C//DTD SVG 1.1//EN" "http://www.w3.org/Graphics/SVG/1.1/DTD/svg11.dtd" [
	<!ENTITY ns_extend "http://ns.adobe.com/Extensibility/1.0/">
	<!ENTITY ns_ai "http://ns.adobe.com/AdobeIllustrator/10.0/">
	<!ENTITY ns_graphs "http://ns.adobe.com/Graphs/1.0/">
	<!ENTITY ns_vars "http://ns.adobe.com/Variables/1.0/">
	<!ENTITY ns_imrep "http://ns.adobe.com/ImageReplacement/1.0/">
	<!ENTITY ns_sfw "http://ns.adobe.com/SaveForWeb/1.0/">
	<!ENTITY ns_custom "http://ns.adobe.com/GenericCustomNamespace/1.0/">
	<!ENTITY ns_adobe_xpath "http://ns.adobe.com/XPath/1.0/">
]>
<svg version="1.1" id="Layer_1" xmlns:x="&ns_extend;" xmlns:i="&ns_ai;" xmlns:graph="&ns_graphs;"
	 xmlns="http://www.w3.org/2000/svg" xmlns:xlink="http://www.w3.org/1999/xlink" x="0px" y="0px" width="700px" height="700px"
	 viewBox="0 0 700 700" enable-background="new 0 0 700 700" xml:space="preserve">
<metadata>
	<sfw  xmlns="&ns_sfw;">
		<slices></slices>
		<sliceSourceBounds  width="700" height="700" y="0" x="0" bottomLeftOrigin="true"></sliceSourceBounds>
	</sfw>
</metadata>
<g>
	<defs>
		<rect id="SVGID_1_" width="700" height="700"/>
	</defs>
	<clipPath id="SVGID_2_">
		<use xlink:href="#SVGID_1_"  overflow="visible"/>
	</clipPath>
	<g clip-path="url(#SVGID_2_)">
		<path fill="#3953A4" d="M502.315,552.054L358.783,408.519l9.311-9.311c2.018-2.017,3.129-4.698,3.128-7.55
			c0-2.852-1.11-5.532-3.128-7.55l-84.475-84.48l4.172-4.172l84.475,84.48c3.132,3.132,4.856,7.294,4.856,11.722
			s-1.725,8.591-4.856,11.722l-5.139,5.139l135.99,135.996c35.581-23.271,65.849-54.697,87.752-91.113l-69.788-69.79l-0.005,0.005
			l-16.42-16.416l0.002-0.001l-10.459-10.458c-1.525-1.524-3.716-2.132-5.794-1.624l-0.042,0.018
			c-7.886,3.2-16.865,1.378-22.879-4.636L349.266,234.28l0.001-0.001l-70.463-70.463c-3.988-3.988-6.185-9.291-6.185-14.933
			c0-5.641,2.198-10.944,6.187-14.932l19.268-19.27c8.233-8.232,21.63-8.232,29.862,0.001L574.193,360.94l-4.172,4.172
			L323.764,118.854c-5.933-5.933-15.585-5.933-21.518-0.001l-19.268,19.27c-2.875,2.874-4.458,6.695-4.458,10.76
			c0,4.065,1.583,7.886,4.457,10.76l86.104,86.105l-0.001,0.001l100.577,100.577c3.611,3.611,8.704,5.125,13.591,4.196l3.103-0.956
			c4.26-1.303,8.866-0.15,12.021,3.002l10.459,10.457l0.005-0.005l87.479,87.481l2.401,1.201l-1.593,2.731
			c-22.858,38.722-54.95,72.034-92.808,96.336L502.315,552.054z"/>
	</g>
	<g clip-path="url(#SVGID_2_)">
		<path fill="#3953A4" d="M320.849,383.389c-2.515,0-5.02-0.965-6.91-2.857l-12.04-12.038h0h0h0.001l-19.85-19.85l-0.004,0.004
			l-21.143-21.143l4.171-4.172l4.646,4.644l-0.001,0.001l12.482,12.482l0.004-0.004l29.398,29.397h0l6.509,6.508
			c1.284,1.285,3.284,1.488,4.791,0.537c0.954-1.508,0.751-3.51-0.534-4.796l-12.041-12.042l0-0.001l-18.107-18.107l-0.001,0.001
			l-1.374-1.374l-0.001,0.001l-24.089-24.089l4.172-4.172l18.369,18.369l0.002-0.002l29.399,29.4l0,0.001l7.844,7.845
			c3.472,3.475,3.818,9.017,0.805,12.893l-0.227,0.292l-0.292,0.227C325.062,382.714,322.952,383.389,320.849,383.389z"/>
	</g>
	<g clip-path="url(#SVGID_2_)">
		<path fill="#3953A4" d="M295.552,408.685c-2.516,0-5.022-0.967-6.914-2.86l-12.04-12.038h0l-43.532-43.533l4.172-4.172
			l24.089,24.089h0l31.484,31.482c1.286,1.289,3.287,1.494,4.794,0.539c0.955-1.507,0.751-3.508-0.534-4.793l-37.245-37.244
			l0.004-0.004l-11.143-11.142l4.172-4.172l16.229,16.228l-0.004,0.004l24.314,24.312l0,0.001l7.844,7.845
			c3.474,3.473,3.82,9.015,0.806,12.891l-0.227,0.292l-0.292,0.227C299.766,408.009,297.655,408.685,295.552,408.685z"/>
	</g>
	<g clip-path="url(#SVGID_2_)">
		<path fill="#3953A4" d="M348.922,596.244c-76.933,0-149.26-29.959-203.66-84.358s-84.358-126.728-84.358-203.66
			c0-76.933,29.959-149.261,84.358-203.66c54.399-54.4,126.727-84.359,203.66-84.359c76.932,0,149.259,29.959,203.659,84.359
			s84.359,126.728,84.359,203.66c0,34.409-6.006,68.067-17.85,100.038l-0.992,2.677l-3.368-1.123l-0.498-0.494l-97.381-97.379
			l4.172-4.172l94.103,94.101c10.562-30.014,15.914-61.493,15.914-93.647c0-75.356-29.346-146.203-82.631-199.488
			S424.278,26.107,348.922,26.107c-75.356,0-146.203,29.345-199.487,82.631c-53.285,53.285-82.63,124.132-82.63,199.488
			c0,75.357,29.345,146.203,82.63,199.488c53.285,53.285,124.131,82.63,199.488,82.63c36.073,0,71.144-6.696,104.318-19.913
			L329.23,446.417l-5.139,5.139c-6.461,6.464-16.978,6.465-23.444,0.005l-84.443-84.446l4.172-4.172l69.987,69.987l0.001-0.001
			l11.646,11.646l-0.001,0.002l2.81,2.811c4.164,4.162,10.938,4.158,15.1-0.004l9.312-9.311l131.811,131.814l1.088,3.263
			l-2.529,1.061C424.501,588.831,387.264,596.244,348.922,596.244z"/>
	</g>
	<g clip-path="url(#SVGID_2_)">
		<path fill="#3953A4" d="M277.364,327.12l-30.151-30.151c-4.938-4.939-4.938-12.974-0.001-17.911l3.054-3.054
			c2.393-2.393,5.573-3.71,8.956-3.71h0c3.383,0,6.564,1.318,8.957,3.711l30.149,30.15l-4.172,4.172l-30.15-30.15
			c-1.278-1.279-2.978-1.983-4.784-1.983h0c-1.807,0-3.505,0.704-4.784,1.982l-3.054,3.054c-2.637,2.637-2.637,6.929,0.001,9.567
			l30.15,30.151L277.364,327.12z"/>
	</g>
	<g clip-path="url(#SVGID_2_)">
		<path fill="#3953A4" d="M252.072,352.348l-30.151-30.151c-4.938-4.938-4.938-12.973-0.001-17.911l3.055-3.053
			c4.937-4.938,12.973-4.939,17.912,0l30.15,30.151l-4.172,4.172l-30.15-30.151c-2.638-2.638-6.93-2.638-9.568,0l-3.054,3.053
			c-2.637,2.637-2.636,6.929,0.001,9.567l30.151,30.151L252.072,352.348z"/>
	</g>
	<g clip-path="url(#SVGID_2_)">
		<path fill="#3953A4" d="M226.786,377.717l-30.151-30.151c-4.938-4.939-4.938-12.974-0.001-17.911l3.054-3.054
			c2.393-2.393,5.574-3.71,8.956-3.71c0,0,0,0,0.001,0c3.383,0,6.563,1.318,8.956,3.711l30.149,30.15l-4.172,4.172l-30.15-30.15
			c-1.278-1.279-2.978-1.983-4.784-1.983h0c-1.807,0-3.505,0.704-4.784,1.982l-3.054,3.054c-2.637,2.637-2.637,6.929,0.001,9.567
			l30.15,30.151L226.786,377.717z"/>
	</g>
</g>
<g>
	<path fill="#3953A4" d="M126.6,650.052c-3.219,9.396-12.094,15.661-22.447,15.661c-16.444,0-24.709-12.441-24.709-24.101
		c0-13.659,10.267-24.274,24.274-24.274c9.396,0,19.315,5.221,22.969,16.096h-2.697c-3.567-10.18-13.225-13.921-20.186-13.833
		c-6.525,0.087-10.789,1.914-15.574,6.177c-3.741,3.394-6.352,9.483-6.352,15.748c0,13.051,10.093,21.926,21.838,21.926
		c10.441-0.087,17.923-6.525,20.185-13.399H126.6z"/>
	<path fill="#3953A4" d="M143.909,600.198h2.436v64.384h-2.436V600.198z"/>
	<path fill="#3953A4" d="M165.659,641.786c0.174,15.053,12.79,21.752,21.838,21.665c8.527,0,16.009-4.351,19.664-12.181h2.697
		c-2.088,4.872-5.394,8.526-9.31,10.962c-3.915,2.35-8.439,3.48-13.138,3.48c-17.401,0-24.274-13.834-24.274-24.101
		c0-13.834,10.615-24.274,24.361-24.274c6.178,0,12.094,2.175,16.531,6.178c5.046,4.524,8.004,11.484,7.569,18.271H165.659z
		 M209.162,639.524c-0.522-11.137-10.875-20.359-21.665-19.924c-11.397,0-21.055,8.265-21.751,19.924H209.162z"/>
	<path fill="#3953A4" d="M273.541,664.582h-2.436v-11.92c-4.177,8.266-11.833,13.051-21.578,13.051
		c-15.139,0-24.274-11.745-24.274-24.188c0-12.703,9.396-24.188,24.274-24.188c11.137,0,19.141,6.873,21.578,13.312v-12.181h2.436
		V664.582z M227.688,641.612c0.087,10.354,7.222,21.839,22.1,21.839c9.832,0,17.314-6.004,20.272-14.356
		c0.957-2.522,1.392-5.307,1.305-8.091c0-2.784-0.522-5.568-1.566-8.005c-3.132-8.005-10.876-13.398-20.272-13.398
		c-12.007,0-21.838,8.961-21.838,21.925V641.612z"/>
	<path fill="#3953A4" d="M294.504,618.469h2.436c0,3.133,0,6.178-0.087,10.006c3.132-8.005,11.137-11.311,19.315-11.137
		c13.747,0.348,20.621,8.613,20.621,22.447v24.797h-2.437v-24.797c0-12.441-6.09-20.359-18.706-20.185
		c-10.962,0.174-18.706,6.351-18.706,18.444v26.537h-2.436V618.469z"/>
	<path fill="#3953A4" d="M389.071,618.469h2.437v11.92c4.176-8.266,11.833-13.051,21.577-13.051
		c15.14,0,24.274,11.746,24.274,24.188c0,12.703-9.396,24.188-24.274,24.188c-11.137,0-19.141-6.873-21.577-13.312v12.181v18.532
		h-2.437V618.469z M434.924,641.438c-0.087-10.354-7.222-21.838-22.1-21.838c-6.178,0-11.572,2.436-15.487,6.351
		c-3.828,4.003-6.09,9.484-6.09,15.661c0,6.178,2.349,11.659,6.264,15.574c3.916,3.915,9.397,6.265,15.574,6.265
		c12.007,0,21.839-8.962,21.839-21.926V641.438z"/>
	<path fill="#3953A4" d="M455.364,600.198h2.437v64.384h-2.437V600.198z"/>
	<path fill="#3953A4" d="M523.663,664.582h-2.437v-11.92c-4.176,8.266-11.832,13.051-21.577,13.051
		c-15.139,0-24.274-11.745-24.274-24.188c0-12.703,9.396-24.188,24.274-24.188c11.137,0,19.142,6.873,21.577,13.312v-12.181h2.437
		V664.582z M477.811,641.612c0.088,10.354,7.222,21.839,22.1,21.839c9.832,0,17.314-6.004,20.272-14.356
		c0.957-2.522,1.393-5.307,1.306-8.091c0-2.784-0.522-5.568-1.566-8.005c-3.133-8.005-10.876-13.398-20.272-13.398
		c-12.007,0-21.839,8.961-21.839,21.925V641.612z"/>
	<path fill="#3953A4" d="M548.629,620.731h-10.18v-2.263h10.18v-18.271h2.436v18.271h11.833v2.263h-11.833v43.851h-2.436V620.731z"
		/>
	<path fill="#3953A4" d="M573.162,641.786c0.174,15.053,12.789,21.752,21.838,21.665c8.526,0,16.009-4.351,19.663-12.181h2.697
		c-2.088,4.872-5.395,8.526-9.31,10.962c-3.915,2.35-8.439,3.48-13.138,3.48c-17.401,0-24.274-13.834-24.274-24.101
		c0-13.834,10.614-24.274,24.361-24.274c6.178,0,12.094,2.175,16.531,6.178c5.046,4.524,8.005,11.484,7.569,18.271H573.162z
		 M616.664,639.524c-0.521-11.137-10.875-20.359-21.664-19.924c-11.397,0-21.056,8.265-21.751,19.924H616.664z"/>
</g>
<g>
	<defs>
		<rect id="SVGID_3_" width="700" height="700"/>
	</defs>
	<clipPath id="SVGID_4_">
		<use xlink:href="#SVGID_3_"  overflow="visible"/>
	</clipPath>
	<g clip-path="url(#SVGID_4_)">
		<path fill="#3953A4" d="M104.15,667.213c-17.206,0-26.208-12.878-26.208-25.599c0-14.693,11.08-25.773,25.773-25.773
			c11.322,0,20.896,6.719,24.39,17.117l0.665,1.978h-5.848l-0.352-1.004c-3.106-8.862-11.544-12.83-18.529-12.83l-0.221,0.002
			c-5.986,0.08-9.941,1.65-14.594,5.797c-3.549,3.219-5.849,8.963-5.849,14.627c0,11.644,8.743,20.424,20.337,20.424
			c10.116-0.084,16.818-6.47,18.759-12.367l0.339-1.031h5.882l-0.681,1.986C124.599,660.512,115.008,667.213,104.15,667.213z"/>
	</g>
	<g clip-path="url(#SVGID_4_)">
		<rect x="142.409" y="598.702" fill="#3953A4" width="5.436" height="67.38"/>
	</g>
	<g clip-path="url(#SVGID_4_)">
		<path fill="#3953A4" d="M187.408,667.213c-18.909,0-25.773-15.309-25.773-25.599c0-14.693,11.117-25.773,25.86-25.773
			c6.615,0,12.843,2.331,17.535,6.562c5.429,4.868,8.519,12.334,8.061,19.48l-0.09,1.404h-45.76
			c0.787,8.215,7.146,18.664,20.078,18.664c0.001,0,0.001,0,0.002,0l0.16-0.001c8.169,0,15.011-4.229,18.317-11.314l0.404-0.865
			h5.927l-0.896,2.091c-2.098,4.895-5.52,8.921-9.895,11.645C197.29,665.936,192.48,667.213,187.408,667.213z M167.4,638.026h40.113
			c-1.319-9.41-10.375-17.317-19.958-16.924C177.138,621.104,168.764,628.272,167.4,638.026z"/>
	</g>
	<g clip-path="url(#SVGID_4_)">
		<path fill="#3953A4" d="M249.525,667.213c-16.74,0-25.773-13.233-25.773-25.686s9.033-25.687,25.773-25.687
			c6.993,0,15.243,3.144,20.076,9.209v-8.078h5.436v49.11h-5.436v-8.236C264.868,663.926,257.903,667.213,249.525,667.213z
			 M249.525,621.104c-11.594,0-20.337,8.78-20.337,20.424c0.112,13.434,10.447,20.424,20.598,20.424
			c8.714,0,15.939-5.118,18.857-13.356c0.884-2.33,1.302-4.928,1.22-7.543c0-2.691-0.5-5.254-1.446-7.46
			C265.441,625.988,258.033,621.104,249.525,621.104z"/>
	</g>
	<g clip-path="url(#SVGID_4_)">
		<path fill="#3953A4" d="M338.287,666.082h-5.436v-26.295c0-15.445-9.136-18.688-16.8-18.688l-0.385,0.003
			c-10.946,0.175-17.226,6.351-17.226,16.944v28.035h-5.436v-49.11h5.436v1.5c0,1.486,0,2.935-0.009,4.447
			c3.923-4.646,10.268-7.22,17.768-7.078c14.246,0.361,22.087,8.866,22.087,23.946V666.082z"/>
	</g>
	<g clip-path="url(#SVGID_4_)">
		<path fill="#3953A4" d="M393.095,684.613h-5.437v-67.642h5.437v8.236c4.733-6.08,11.698-9.367,20.076-9.367
			c16.74,0,25.772,13.234,25.772,25.687s-9.032,25.686-25.772,25.686c-6.993,0-15.243-3.144-20.076-9.208V684.613z M412.91,621.104
			c-5.49,0-10.613,2.1-14.426,5.911c-3.636,3.801-5.65,8.994-5.65,14.6c0,5.604,2.068,10.758,5.823,14.513
			c3.758,3.756,8.912,5.824,14.514,5.824c11.594,0,20.337-8.78,20.337-20.424C433.396,628.094,423.061,621.104,412.91,621.104z"/>
	</g>
	<g clip-path="url(#SVGID_4_)">
		<rect x="453.951" y="598.702" fill="#3953A4" width="5.436" height="67.38"/>
	</g>
	<g clip-path="url(#SVGID_4_)">
		<path fill="#3953A4" d="M499.82,667.213c-16.739,0-25.771-13.233-25.771-25.686s9.032-25.687,25.771-25.687
			c6.993,0,15.244,3.144,20.076,9.207v-8.076h5.436v49.11h-5.436v-8.269C515.15,663.845,508.07,667.213,499.82,667.213z
			 M499.82,621.104c-11.594,0-20.337,8.78-20.337,20.424c0.112,13.434,10.447,20.424,20.598,20.424
			c8.715,0,15.941-5.118,18.858-13.356c0.883-2.327,1.3-4.925,1.219-7.543c-0.001-2.693-0.5-5.257-1.444-7.46
			C515.738,625.988,508.329,621.104,499.82,621.104z"/>
	</g>
	<g clip-path="url(#SVGID_4_)">
		<polygon fill="#3953A4" points="552.737,666.082 547.301,666.082 547.301,622.234 537.122,622.234 537.122,616.972 
			547.301,616.972 547.301,598.702 552.737,598.702 552.737,616.972 564.569,616.972 564.569,622.234 552.737,622.234 		"/>
	</g>
	<g clip-path="url(#SVGID_4_)">
		<path fill="#3953A4" d="M595.085,667.213c-18.909,0-25.772-15.309-25.772-25.599c0-14.693,11.117-25.773,25.859-25.773
			c6.615,0,12.843,2.331,17.536,6.562c5.429,4.869,8.52,12.334,8.061,19.48l-0.09,1.404h-45.762
			c0.787,8.215,7.146,18.664,20.079,18.664c0.001,0,0.001,0,0.001,0l0.16-0.001c8.169,0,15.012-4.229,18.318-11.314l0.404-0.865
			h5.928l-0.896,2.091c-2.099,4.895-5.521,8.921-9.896,11.645C604.967,665.936,600.157,667.213,595.085,667.213z M575.077,638.026
			h40.113c-1.319-9.408-10.335-17.35-19.958-16.924C584.815,621.104,576.441,628.272,575.077,638.026z"/>
	</g>
</g>
</svg>
