<?xml version="1.0" encoding="UTF-8" standalone="no"?>
<svg
   xmlns:dc="http://purl.org/dc/elements/1.1/"
   xmlns:cc="http://creativecommons.org/ns#"
   xmlns:rdf="http://www.w3.org/1999/02/22-rdf-syntax-ns#"
   xmlns:svg="http://www.w3.org/2000/svg"
   xmlns="http://www.w3.org/2000/svg"
   xmlns:xlink="http://www.w3.org/1999/xlink"
   xmlns:sodipodi="http://sodipodi.sourceforge.net/DTD/sodipodi-0.dtd"
   xmlns:inkscape="http://www.inkscape.org/namespaces/inkscape"
   width="512"
   height="512"
   preserveAspectRatio="xMidYMid meet"
   viewBox="0 0 512 512"
   style="-ms-transform: rotate(360deg); -webkit-transform: rotate(360deg); transform: rotate(360deg);"
   version="1.1"
   id="svg10"
   sodipodi:docname="splash.svg"
   inkscape:version="0.92.3 (2405546, 2018-03-11)"
   inkscape:export-filename="/home/mzeroes/Workspace/minze/minze/app/assets/images/logo/logo.png"
   inkscape:export-xdpi="96"
   inkscape:export-ydpi="96">
  <metadata
     id="metadata16">
    <rdf:RDF>
      <cc:Work
         rdf:about="">
        <dc:format>image/svg+xml</dc:format>
        <dc:type
           rdf:resource="http://purl.org/dc/dcmitype/StillImage" />
        <dc:title />
      </cc:Work>
    </rdf:RDF>
  </metadata>
  <defs
     id="defs14">
    <clipPath
       id="SVGID_2_">
      <use
         height="100%"
         width="100%"
         y="0"
         x="0"
         style="overflow:visible"
         xlink:href="#SVGID_1_"
         overflow="visible"
         id="use7" />
    </clipPath>
    <clipPath
       id="clipPath127">
      <use
         height="100%"
         width="100%"
         y="0"
         x="0"
         style="overflow:visible"
         xlink:href="#SVGID_1_"
         overflow="visible"
         id="use125" />
    </clipPath>
    <clipPath
       id="clipPath131">
      <use
         height="100%"
         width="100%"
         y="0"
         x="0"
         style="overflow:visible"
         xlink:href="#SVGID_1_"
         overflow="visible"
         id="use129" />
    </clipPath>
    <clipPath
       id="clipPath135">
      <use
         height="100%"
         width="100%"
         y="0"
         x="0"
         style="overflow:visible"
         xlink:href="#SVGID_1_"
         overflow="visible"
         id="use133" />
    </clipPath>
    <clipPath
       id="clipPath139">
      <use
         height="100%"
         width="100%"
         y="0"
         x="0"
         style="overflow:visible"
         xlink:href="#SVGID_1_"
         overflow="visible"
         id="use137" />
    </clipPath>
    <clipPath
       id="clipPath143">
      <use
         height="100%"
         width="100%"
         y="0"
         x="0"
         style="overflow:visible"
         xlink:href="#SVGID_1_"
         overflow="visible"
         id="use141" />
    </clipPath>
    <clipPath
       id="clipPath147">
      <use
         height="100%"
         width="100%"
         y="0"
         x="0"
         style="overflow:visible"
         xlink:href="#SVGID_1_"
         overflow="visible"
         id="use145" />
    </clipPath>
    <clipPath
       id="SVGID_4_">
      <use
         height="100%"
         width="100%"
         y="0"
         x="0"
         style="overflow:visible"
         xlink:href="#SVGID_3_"
         overflow="visible"
         id="use65" />
    </clipPath>
    <clipPath
       id="clipPath153">
      <use
         height="100%"
         width="100%"
         y="0"
         x="0"
         style="overflow:visible"
         xlink:href="#SVGID_3_"
         overflow="visible"
         id="use151" />
    </clipPath>
    <clipPath
       id="clipPath157">
      <use
         height="100%"
         width="100%"
         y="0"
         x="0"
         style="overflow:visible"
         xlink:href="#SVGID_3_"
         overflow="visible"
         id="use155" />
    </clipPath>
    <clipPath
       id="clipPath161">
      <use
         height="100%"
         width="100%"
         y="0"
         x="0"
         style="overflow:visible"
         xlink:href="#SVGID_3_"
         overflow="visible"
         id="use159" />
    </clipPath>
    <clipPath
       id="clipPath165">
      <use
         height="100%"
         width="100%"
         y="0"
         x="0"
         style="overflow:visible"
         xlink:href="#SVGID_3_"
         overflow="visible"
         id="use163" />
    </clipPath>
    <clipPath
       id="clipPath169">
      <use
         height="100%"
         width="100%"
         y="0"
         x="0"
         style="overflow:visible"
         xlink:href="#SVGID_3_"
         overflow="visible"
         id="use167" />
    </clipPath>
    <clipPath
       id="clipPath173">
      <use
         height="100%"
         width="100%"
         y="0"
         x="0"
         style="overflow:visible"
         xlink:href="#SVGID_3_"
         overflow="visible"
         id="use171" />
    </clipPath>
    <clipPath
       id="clipPath177">
      <use
         height="100%"
         width="100%"
         y="0"
         x="0"
         style="overflow:visible"
         xlink:href="#SVGID_3_"
         overflow="visible"
         id="use175" />
    </clipPath>
    <clipPath
       id="clipPath181">
      <use
         height="100%"
         width="100%"
         y="0"
         x="0"
         style="overflow:visible"
         xlink:href="#SVGID_3_"
         overflow="visible"
         id="use179" />
    </clipPath>
    <clipPath
       id="clipPath185">
      <use
         height="100%"
         width="100%"
         y="0"
         x="0"
         style="overflow:visible"
         xlink:href="#SVGID_3_"
         overflow="visible"
         id="use183" />
    </clipPath>
    <rect
       y="0"
       x="0"
       id="SVGID_1_"
       width="700"
       height="700" />
    <rect
       y="0"
       x="0"
       id="SVGID_3_"
       width="700"
       height="700" />
    <clipPath
       id="SVGID_2_-7">
      <use
         height="100%"
         width="100%"
         y="0"
         x="0"
         style="overflow:visible"
         xlink:href="#SVGID_1_"
         overflow="visible"
         id="use7-5" />
    </clipPath>
    <clipPath
       id="clipPath2725">
      <use
         height="100%"
         width="100%"
         y="0"
         x="0"
         style="overflow:visible"
         xlink:href="#SVGID_1_"
         overflow="visible"
         id="use2723" />
    </clipPath>
    <clipPath
       id="clipPath2729">
      <use
         height="100%"
         width="100%"
         y="0"
         x="0"
         style="overflow:visible"
         xlink:href="#SVGID_1_"
         overflow="visible"
         id="use2727" />
    </clipPath>
    <clipPath
       id="clipPath2733">
      <use
         height="100%"
         width="100%"
         y="0"
         x="0"
         style="overflow:visible"
         xlink:href="#SVGID_1_"
         overflow="visible"
         id="use2731" />
    </clipPath>
    <clipPath
       id="clipPath2737">
      <use
         height="100%"
         width="100%"
         y="0"
         x="0"
         style="overflow:visible"
         xlink:href="#SVGID_1_"
         overflow="visible"
         id="use2735" />
    </clipPath>
    <clipPath
       id="clipPath2741">
      <use
         height="100%"
         width="100%"
         y="0"
         x="0"
         style="overflow:visible"
         xlink:href="#SVGID_1_"
         overflow="visible"
         id="use2739" />
    </clipPath>
    <clipPath
       id="clipPath2745">
      <use
         height="100%"
         width="100%"
         y="0"
         x="0"
         style="overflow:visible"
         xlink:href="#SVGID_1_"
         overflow="visible"
         id="use2743" />
    </clipPath>
  </defs>
  <sodipodi:namedview
     pagecolor="#ffffff"
     bordercolor="#666666"
     borderopacity="1"
     objecttolerance="10"
     gridtolerance="10"
     guidetolerance="10"
     inkscape:pageopacity="0"
     inkscape:pageshadow="2"
     inkscape:window-width="1366"
     inkscape:window-height="768"
     id="namedview12"
     showgrid="false"
     inkscape:zoom="0.92187499"
     inkscape:cx="121.40931"
     inkscape:cy="345.61295"
     inkscape:window-x="0"
     inkscape:window-y="0"
     inkscape:window-maximized="1"
     inkscape:current-layer="g38" />
  <g
     transform="matrix(0.86800131,0,0,0.86800131,-46.864752,-11.540573)"
     id="g38">
    <defs
       id="defs5">
      <rect
         y="0"
         x="0"
         id="rect2427"
         width="700"
         height="700" />
    </defs>
    <clipPath
       id="clipPath191">
      <use
         height="100%"
         width="100%"
         y="0"
         x="0"
         style="overflow:visible"
         xlink:href="#SVGID_1_"
         overflow="visible"
         id="use189" />
    </clipPath>
    <rect
       style="opacity:1;fill:#277d31;fill-opacity:1;fill-rule:nonzero;stroke-width:1.15207195"
       id="rect2696"
       width="593.60992"
       height="589.86084"
       x="53.99157"
       y="13.295592"
       ry="0" />
    <g
       id="g2498"
       transform="rotate(30,340.50785,303.8177)"
       style="fill:#f2f2f2;fill-opacity:1">
      <g
         id="g12"
         clip-path="url(#SVGID_2_-7)"
         style="fill:#f2f2f2;fill-opacity:1">
        <path
           id="path10"
           d="m 502.315,552.054 -143.532,-143.535 9.311,-9.311 c 2.018,-2.017 3.129,-4.698 3.128,-7.55 0,-2.852 -1.11,-5.532 -3.128,-7.55 l -84.475,-84.48 4.172,-4.172 84.475,84.48 c 3.132,3.132 4.856,7.294 4.856,11.722 0,4.428 -1.725,8.591 -4.856,11.722 l -5.139,5.139 135.99,135.996 c 35.581,-23.271 65.849,-54.697 87.752,-91.113 l -69.788,-69.79 -0.005,0.005 -16.42,-16.416 0.002,-0.001 -10.459,-10.458 c -1.525,-1.524 -3.716,-2.132 -5.794,-1.624 l -0.042,0.018 c -7.886,3.2 -16.865,1.378 -22.879,-4.636 l -116.218,-116.22 10e-4,-0.001 -70.463,-70.463 c -3.988,-3.988 -6.185,-9.291 -6.185,-14.933 0,-5.641 2.198,-10.944 6.187,-14.932 l 19.268,-19.27 c 8.233,-8.232 21.63,-8.232 29.862,0.001 l 246.257,246.258 -4.172,4.172 -246.257,-246.258 c -5.933,-5.933 -15.585,-5.933 -21.518,-0.001 l -19.268,19.27 c -2.875,2.874 -4.458,6.695 -4.458,10.76 0,4.065 1.583,7.886 4.457,10.76 l 86.104,86.105 -0.001,0.001 100.577,100.577 c 3.611,3.611 8.704,5.125 13.591,4.196 l 3.103,-0.956 c 4.26,-1.303 8.866,-0.15 12.021,3.002 l 10.459,10.457 0.005,-0.005 87.479,87.481 2.401,1.201 -1.593,2.731 c -22.858,38.722 -54.95,72.034 -92.808,96.336 z"
           inkscape:connector-curvature="0"
           style="fill:#f2f2f2;fill-opacity:1" />
      </g>
      <g
         id="g16"
         clip-path="url(#SVGID_2_-7)"
         style="fill:#f2f2f2;fill-opacity:1">
        <path
           id="path14"
           d="m 320.849,383.389 c -2.515,0 -5.02,-0.965 -6.91,-2.857 l -12.04,-12.038 v 0 0 h 10e-4 l -19.85,-19.85 -0.004,0.004 -21.143,-21.143 4.171,-4.172 4.646,4.644 -0.001,0.001 12.482,12.482 0.004,-0.004 29.398,29.397 v 0 l 6.509,6.508 c 1.284,1.285 3.284,1.488 4.791,0.537 0.954,-1.508 0.751,-3.51 -0.534,-4.796 L 310.328,360.06 v -10e-4 l -18.107,-18.107 -10e-4,10e-4 -1.374,-1.374 -10e-4,10e-4 -24.089,-24.089 4.172,-4.172 18.369,18.369 0.002,-0.002 29.399,29.4 v 10e-4 l 7.844,7.845 c 3.472,3.475 3.818,9.017 0.805,12.893 l -0.227,0.292 -0.292,0.227 c -1.766,1.37 -3.876,2.045 -5.979,2.045 z"
           inkscape:connector-curvature="0"
           style="fill:#f2f2f2;fill-opacity:1" />
      </g>
      <g
         id="g20"
         clip-path="url(#SVGID_2_-7)"
         style="fill:#f2f2f2;fill-opacity:1">
        <path
           id="path18"
           d="m 295.552,408.685 c -2.516,0 -5.022,-0.967 -6.914,-2.86 l -12.04,-12.038 v 0 l -43.532,-43.533 4.172,-4.172 24.089,24.089 v 0 l 31.484,31.482 c 1.286,1.289 3.287,1.494 4.794,0.539 0.955,-1.507 0.751,-3.508 -0.534,-4.793 l -37.245,-37.244 0.004,-0.004 -11.143,-11.142 4.172,-4.172 16.229,16.228 -0.004,0.004 24.314,24.312 v 0.001 l 7.844,7.845 c 3.474,3.473 3.82,9.015 0.806,12.891 l -0.227,0.292 -0.292,0.227 c -1.763,1.372 -3.874,2.048 -5.977,2.048 z"
           inkscape:connector-curvature="0"
           style="fill:#f2f2f2;fill-opacity:1" />
      </g>
      <g
         id="g24"
         clip-path="url(#SVGID_2_-7)"
         style="fill:#f2f2f2;fill-opacity:1">
        <path
           id="path22"
           d="m 348.922,596.244 c -76.933,0 -149.26,-29.959 -203.66,-84.358 -54.4,-54.399 -84.358,-126.728 -84.358,-203.66 0,-76.933 29.959,-149.261 84.358,-203.66 54.399,-54.4 126.727,-84.359 203.66,-84.359 76.932,0 149.259,29.959 203.659,84.359 54.4,54.4 84.359,126.728 84.359,203.66 0,34.409 -6.006,68.067 -17.85,100.038 l -0.992,2.677 -3.368,-1.123 -0.498,-0.494 -97.381,-97.379 4.172,-4.172 94.103,94.101 c 10.562,-30.014 15.914,-61.493 15.914,-93.647 0,-75.356 -29.346,-146.203 -82.631,-199.488 C 495.124,55.454 424.278,26.107 348.922,26.107 c -75.356,0 -146.203,29.345 -199.487,82.631 -53.285,53.285 -82.63,124.132 -82.63,199.488 0,75.357 29.345,146.203 82.63,199.488 53.285,53.285 124.131,82.63 199.488,82.63 36.073,0 71.144,-6.696 104.318,-19.913 L 329.23,446.417 l -5.139,5.139 c -6.461,6.464 -16.978,6.465 -23.444,0.005 l -84.443,-84.446 4.172,-4.172 69.987,69.987 10e-4,-0.001 11.646,11.646 -10e-4,0.002 2.81,2.811 c 4.164,4.162 10.938,4.158 15.1,-0.004 l 9.312,-9.311 131.811,131.814 1.088,3.263 -2.529,1.061 c -35.1,14.62 -72.337,22.033 -110.679,22.033 z"
           inkscape:connector-curvature="0"
           style="fill:#f2f2f2;fill-opacity:1" />
      </g>
      <g
         id="g28"
         clip-path="url(#SVGID_2_-7)"
         style="fill:#f2f2f2;fill-opacity:1">
        <path
           id="path26"
           d="m 277.364,327.12 -30.151,-30.151 c -4.938,-4.939 -4.938,-12.974 -0.001,-17.911 l 3.054,-3.054 c 2.393,-2.393 5.573,-3.71 8.956,-3.71 v 0 c 3.383,0 6.564,1.318 8.957,3.711 l 30.149,30.15 -4.172,4.172 -30.15,-30.15 c -1.278,-1.279 -2.978,-1.983 -4.784,-1.983 v 0 c -1.807,0 -3.505,0.704 -4.784,1.982 l -3.054,3.054 c -2.637,2.637 -2.637,6.929 0.001,9.567 l 30.15,30.151 z"
           inkscape:connector-curvature="0"
           style="fill:#f2f2f2;fill-opacity:1" />
      </g>
      <g
         id="g32"
         clip-path="url(#SVGID_2_-7)"
         style="fill:#f2f2f2;fill-opacity:1">
        <path
           id="path30"
           d="m 252.072,352.348 -30.151,-30.151 c -4.938,-4.938 -4.938,-12.973 -0.001,-17.911 l 3.055,-3.053 c 4.937,-4.938 12.973,-4.939 17.912,0 l 30.15,30.151 -4.172,4.172 -30.15,-30.151 c -2.638,-2.638 -6.93,-2.638 -9.568,0 l -3.054,3.053 c -2.637,2.637 -2.636,6.929 0.001,9.567 l 30.151,30.151 z"
           inkscape:connector-curvature="0"
           style="fill:#f2f2f2;fill-opacity:1" />
      </g>
      <g
         id="g36"
         clip-path="url(#SVGID_2_-7)"
         style="fill:#f2f2f2;fill-opacity:1">
        <path
           id="path34"
           d="m 226.786,377.717 -30.151,-30.151 c -4.938,-4.939 -4.938,-12.974 -0.001,-17.911 l 3.054,-3.054 c 2.393,-2.393 5.574,-3.71 8.956,-3.71 0,0 0,0 0.001,0 3.383,0 6.563,1.318 8.956,3.711 l 30.149,30.15 -4.172,4.172 -30.15,-30.15 c -1.278,-1.279 -2.978,-1.983 -4.784,-1.983 v 0 c -1.807,0 -3.505,0.704 -4.784,1.982 l -3.054,3.054 c -2.637,2.637 -2.637,6.929 10e-4,9.567 l 30.15,30.151 z"
           inkscape:connector-curvature="0"
           style="fill:#f2f2f2;fill-opacity:1" />
      </g>
    </g>
  </g>
</svg>
